<?xml version="1.0" encoding="UTF-8" standalone="no"?>
<!-- Created with Inkscape (http://www.inkscape.org/) -->

<svg
   width="111.76mm"
   height="128.5mm"
   viewBox="0 0 111.76001 128.5"
   version="1.1"
   id="svg5"
   inkscape:version="1.2.2 (732a01da63, 2022-12-09)"
   sodipodi:docname="tape-machine.svg"
   xml:space="preserve"
   xmlns:inkscape="http://www.inkscape.org/namespaces/inkscape"
   xmlns:sodipodi="http://sodipodi.sourceforge.net/DTD/sodipodi-0.dtd"
   xmlns="http://www.w3.org/2000/svg"
   xmlns:svg="http://www.w3.org/2000/svg"><sodipodi:namedview
     id="namedview7"
     pagecolor="#505050"
     bordercolor="#000000"
     borderopacity="1"
     inkscape:pageshadow="0"
     inkscape:pageopacity="0"
     inkscape:pagecheckerboard="0"
     inkscape:document-units="mm"
     showgrid="false"
     borderlayer="true"
     inkscape:zoom="1.2810466"
     inkscape:cx="217.40037"
     inkscape:cy="246.67331"
     inkscape:current-layer="layer1"
     inkscape:showpageshadow="0"
     inkscape:deskcolor="#505050"><inkscape:grid
       type="xygrid"
       id="grid875"
       originx="0"
       originy="0" /></sodipodi:namedview><defs
     id="defs2" /><g
     inkscape:label="panel"
     inkscape:groupmode="layer"
     id="layer1"
     style="fill:#f2f2f2"><rect
       style="fill:#f2f2f2;stroke-width:0.925162"
       id="rect289"
       width="115.04102"
       height="131.77051"
       x="-1.6206665"
       y="-1.6352539" /><g
       aria-label="tape machine"
       id="text399"
       style="font-size:7.05556px;line-height:1.25;font-family:Alef;-inkscape-font-specification:Alef;fill:#1a1a1a;stroke-width:0.264583"
       transform="translate(-4.3372739)"><path
         d="m 40.472019,4.8913231 h 0.592557 v 0.8199333 h 1.205784 v 0.4995391 h -1.205784 v 2.0567234 q 0,0.2067058 0.01033,0.316949 0.01378,0.106798 0.06201,0.1688097 0.08957,0.1240236 0.361735,0.1240236 0.151585,0 0.292834,-0.031006 0.144694,-0.031006 0.265272,-0.068902 0.09646,0.210151 0.1757,0.4616431 -0.406521,0.1378039 -0.819933,0.1378039 -0.299723,0 -0.482314,-0.068902 Q 40.751072,9.2424815 40.647719,9.0908972 40.540921,8.9324227 40.50647,8.7119365 40.472019,8.4914502 40.472019,8.1021542 V 6.2107955 H 39.955255 V 5.7112564 h 0.516764 z"
         id="path455" /><path
         d="M 43.331451,6.3451543 43.179866,5.8628407 q 0.578777,-0.2308216 1.212675,-0.2308216 0.55466,0 0.847494,0.1860353 0.334174,0.213596 0.334174,0.7269156 v 1.409045 q 0,0.282498 0.0069,0.5787764 0.0034,0.1757 0.03445,0.3651803 0.02756,0.1791451 0.07235,0.3410647 l -0.564996,0.1240235 q -0.07924,-0.2308215 -0.09991,-0.5167646 l -0.0689,-0.00689 q -0.427193,0.5374352 -1.088651,0.5374352 -0.482314,0 -0.775147,-0.2652725 -0.292834,-0.2687176 -0.292834,-0.7544764 0,-0.3617353 0.158475,-0.5925568 0.161919,-0.2308215 0.454753,-0.389296 0.461643,-0.2514922 1.291911,-0.2514922 0.110244,0 0.296279,0.00689 V 6.6069818 q 0,-0.2480471 -0.151584,-0.3582902 -0.151585,-0.1102431 -0.475424,-0.1102431 -0.471978,0 -1.040419,0.2067058 z m 1.667427,1.9430352 V 7.5647189 q -0.09302,-0.00689 -0.272163,-0.00689 -0.303169,0 -0.558106,0.051677 -0.37896,0.075792 -0.589111,0.2411568 -0.206706,0.1619196 -0.206706,0.4685333 0,0.5512157 0.599447,0.5512157 0.310058,0 0.578776,-0.1653647 0.220486,-0.1378039 0.447863,-0.4168575 z"
         id="path457" /><path
         d="M 47.293313,10.672197 H 46.700756 V 7.0617347 q 0,-0.599447 -0.01722,-0.7889274 -0.01723,-0.2342667 -0.07924,-0.5029843 L 47.17618,5.6423544 q 0.05857,0.1929255 0.08613,0.389296 0.03445,0.2411569 0.0379,0.3720706 h 0.05168 q 0.179145,-0.3720706 0.396186,-0.5477705 0.261827,-0.2239314 0.647678,-0.2239314 0.33762,0 0.582222,0.1481392 0.244602,0.1446941 0.378961,0.4065215 0.137803,0.2618275 0.199815,0.5753314 0.06546,0.3135039 0.06546,0.6924646 0,0.4271921 -0.08957,0.7682568 -0.08613,0.3410647 -0.268718,0.6063372 -0.18259,0.2618274 -0.489204,0.4065215 -0.306614,0.141249 -0.720025,0.141249 -0.32384,0 -0.761367,-0.086127 z m 0,-3.5071094 V 8.767058 q 0.389296,0.103353 0.71658,0.103353 0.279053,0 0.478869,-0.099908 0.203261,-0.1033529 0.316949,-0.2859431 0.113688,-0.1860353 0.165365,-0.4134117 0.05168,-0.2273765 0.05168,-0.5098745 0,-0.1929254 -0.01033,-0.3376195 -0.0069,-0.1481392 -0.03101,-0.316949 -0.02067,-0.1722549 -0.0689,-0.2928333 -0.04823,-0.1205785 -0.120578,-0.2239314 -0.07235,-0.1033529 -0.189481,-0.1550294 -0.113688,-0.055122 -0.265272,-0.055122 -0.365181,0 -0.633898,0.2928333 -0.192926,0.213596 -0.409967,0.6924646 z"
         id="path459" /><path
         d="m 53.225772,9.0943423 q -0.382406,0.1515843 -0.720026,0.2170412 -0.334174,0.065457 -0.599447,0.065457 -0.406521,0 -0.70969,-0.1274686 Q 50.89344,9.118458 50.69018,8.8841914 50.490364,8.6499247 50.387011,8.3260855 q -0.09991,-0.3272843 -0.09991,-0.7200254 0,-0.2411568 0.03445,-0.4823137 0.03445,-0.2411568 0.110243,-0.458198 0.07579,-0.2204862 0.196371,-0.4099666 0.124023,-0.1894804 0.299723,-0.3272843 0.1757,-0.1378039 0.409967,-0.2170411 0.234267,-0.079237 0.53399,-0.079237 0.768257,0 1.157553,0.4823137 0.389296,0.4788686 0.389296,1.374594 v 0.1894804 h -2.521811 q 0,0.2893882 0.06201,0.5133195 0.06201,0.2204863 0.189481,0.3755157 0.130913,0.1515843 0.327284,0.2308215 0.199816,0.079237 0.471978,0.079237 0.151585,0 0.299724,-0.020671 0.151584,-0.024116 0.292833,-0.058567 0.141249,-0.037896 0.268718,-0.082682 0.130913,-0.044786 0.244602,-0.086127 z M 52.822695,7.2029837 q -0.02756,-0.5581059 -0.268717,-0.8130431 -0.237712,-0.2583823 -0.68213,-0.2583823 -0.444417,0 -0.678684,0.2583823 -0.230822,0.2549372 -0.279053,0.8130431 z"
         id="path461" /><path
         d="M 56.340138,9.294158 V 7.0789602 q 0,-0.5305451 -0.02412,-0.7992627 -0.01378,-0.210151 -0.08957,-0.5133196 l 0.564996,-0.1274686 q 0.06546,0.2067059 0.09302,0.3996313 0.01378,0.072347 0.03445,0.3755157 h 0.07235 q 0.1757,-0.3514 0.440972,-0.5512156 0.285944,-0.2308216 0.651124,-0.2308216 0.206706,0 0.399631,0.075792 0.192926,0.072347 0.323839,0.2067058 0.196371,0.1929255 0.279053,0.5718862 h 0.04134 q 0.206705,-0.3996313 0.485758,-0.6132273 0.299724,-0.2411569 0.671794,-0.2411569 0.451308,0 0.692465,0.2514921 0.210151,0.210151 0.296278,0.6407882 0.06201,0.3135039 0.06201,0.8750548 V 9.294158 H 60.742973 V 7.2339896 q 0,-0.2721628 -0.03101,-0.4478628 -0.04823,-0.2721627 -0.172254,-0.423747 -0.15503,-0.1825901 -0.434083,-0.1825901 -0.316949,0 -0.585666,0.3031685 -0.16192,0.1825902 -0.385851,0.5649961 0.0069,0.058567 0.0069,0.1722549 V 9.294158 H 58.548446 V 7.2339896 q 0,-0.4375275 -0.08613,-0.6717941 -0.144694,-0.3824058 -0.547771,-0.3824058 -0.310059,0 -0.589112,0.3100587 -0.161919,0.1791451 -0.392741,0.5960019 V 9.294158 Z"
         id="path463" /><path
         d="M 62.548205,6.3451543 62.39662,5.8628407 q 0.578777,-0.2308216 1.212675,-0.2308216 0.554661,0 0.847494,0.1860353 0.334174,0.213596 0.334174,0.7269156 v 1.409045 q 0,0.282498 0.0069,0.5787764 0.0034,0.1757 0.03445,0.3651803 0.02756,0.1791451 0.07235,0.3410647 l -0.564996,0.1240235 q -0.07924,-0.2308215 -0.09991,-0.5167646 l -0.0689,-0.00689 q -0.427192,0.5374352 -1.088651,0.5374352 -0.482314,0 -0.775147,-0.2652725 -0.292833,-0.2687176 -0.292833,-0.7544764 0,-0.3617353 0.158474,-0.5925568 0.16192,-0.2308215 0.454753,-0.389296 0.461643,-0.2514922 1.291912,-0.2514922 0.110243,0 0.296278,0.00689 V 6.6069818 q 0,-0.2480471 -0.151584,-0.3582902 -0.151585,-0.1102431 -0.475424,-0.1102431 -0.471978,0 -1.040419,0.2067058 z m 1.667427,1.9430352 V 7.5647189 q -0.09302,-0.00689 -0.272163,-0.00689 -0.303168,0 -0.558106,0.051677 -0.37896,0.075792 -0.589111,0.2411568 -0.206706,0.1619196 -0.206706,0.4685333 0,0.5512157 0.599447,0.5512157 0.310059,0 0.578776,-0.1653647 0.220487,-0.1378039 0.447863,-0.4168575 z"
         id="path465" /><path
         d="m 68.428987,9.1666894 q -0.268717,0.093018 -0.575331,0.1515843 -0.303169,0.058567 -0.575331,0.058567 -0.413412,0 -0.716581,-0.1205784 -0.303168,-0.1205784 -0.502984,-0.3514 -0.19637,-0.2308215 -0.292833,-0.564996 -0.09646,-0.3376196 -0.09646,-0.7682568 0,-0.4685333 0.117133,-0.8302685 0.120579,-0.3617353 0.34451,-0.6063372 0.227377,-0.2480471 0.551216,-0.3755157 0.327284,-0.1274686 0.740696,-0.1274686 0.210151,0 0.427192,0.044786 0.217041,0.041341 0.440972,0.106798 l -0.148139,0.4823137 q -0.179145,-0.058567 -0.334174,-0.093018 -0.151585,-0.034451 -0.320394,-0.034451 -0.585667,0 -0.902616,0.3410647 -0.316949,0.3376195 -0.316949,1.023194 0,0.3203941 0.04479,0.5753313 0.04823,0.2514921 0.165365,0.4306372 0.120578,0.1757 0.323839,0.2687176 0.206706,0.093018 0.523655,0.093018 0.206706,0 0.444418,-0.051677 0.241157,-0.055122 0.509874,-0.1343588 z"
         id="path467" /><path
         d="m 69.300596,4.3332173 h 0.592557 v 2.1600762 q 0.230822,-0.3927411 0.523655,-0.6132273 0.334175,-0.2480471 0.664904,-0.2480471 0.496094,0 0.771702,0.2480471 0.237712,0.213596 0.327284,0.6442332 0.0689,0.3272843 0.0689,0.881945 V 9.294158 H 71.657043 V 7.2408797 q 0,-0.2101509 -0.01033,-0.3445097 -0.01033,-0.1378039 -0.05168,-0.2859431 -0.0379,-0.1515843 -0.113688,-0.2342667 -0.07235,-0.086127 -0.206706,-0.141249 -0.130913,-0.055122 -0.320394,-0.055122 -0.327284,0 -0.630453,0.3100587 -0.192925,0.1963706 -0.430637,0.599447 V 9.294158 h -0.592557 z"
         id="path469" /><path
         d="m 73.617306,4.322882 q 0.158474,0 0.275608,0.1102431 0.113688,0.1205784 0.113688,0.282498 0,0.1653647 -0.113688,0.2790529 -0.117134,0.1171334 -0.275608,0.1171334 -0.165365,0 -0.282498,-0.1171334 -0.117133,-0.1102431 -0.117133,-0.2790529 0,-0.1653647 0.117133,-0.282498 0.117133,-0.1102431 0.282498,-0.1102431 z m -0.303169,1.3883744 h 0.592557 V 9.294158 h -0.592557 z"
         id="path471" /><path
         d="m 75.026348,5.7732681 0.571887,-0.1274686 q 0.06546,0.2067059 0.09302,0.3996313 0.01378,0.093018 0.03445,0.3686255 h 0.07235 q 0.189481,-0.3479549 0.468534,-0.5546607 0.306613,-0.2273765 0.647678,-0.2273765 0.51332,0 0.782037,0.2480471 0.230822,0.2101509 0.320394,0.6442332 0.05857,0.2962784 0.05857,0.881945 V 9.294158 H 77.482703 V 7.2408797 q 0,-0.5133195 -0.09991,-0.7338058 -0.148139,-0.3272842 -0.596002,-0.3272842 -0.316949,0 -0.620117,0.3031685 -0.203261,0.2032608 -0.434083,0.596002 V 9.294158 H 75.140037 V 7.0892954 q 0,-0.4650881 -0.02412,-0.8027077 -0.01378,-0.210151 -0.08957,-0.5133196 z"
         id="path473" /><path
         d="m 81.771849,9.0943423 q -0.382406,0.1515843 -0.720025,0.2170412 -0.334175,0.065457 -0.599447,0.065457 -0.406522,0 -0.70969,-0.1274686 -0.303169,-0.1309137 -0.50643,-0.3651803 -0.199815,-0.2342667 -0.303168,-0.5581059 -0.09991,-0.3272843 -0.09991,-0.7200254 0,-0.2411568 0.03445,-0.4823137 0.03445,-0.2411568 0.110243,-0.458198 0.07579,-0.2204862 0.196371,-0.4099666 0.124023,-0.1894804 0.299723,-0.3272843 0.1757,-0.1378039 0.409967,-0.2170411 0.234266,-0.079237 0.53399,-0.079237 0.768257,0 1.157553,0.4823137 0.389296,0.4788686 0.389296,1.374594 V 7.6784077 H 79.44296 q 0,0.2893882 0.06201,0.5133195 0.06201,0.2204863 0.18948,0.3755157 0.130914,0.1515843 0.327285,0.2308215 0.199815,0.079237 0.471978,0.079237 0.151584,0 0.299724,-0.020671 0.151584,-0.024116 0.292833,-0.058567 0.141249,-0.037896 0.268717,-0.082682 0.130914,-0.044786 0.244602,-0.086127 z M 81.368773,7.2029837 Q 81.341212,6.6448778 81.100055,6.3899406 80.862344,6.1315583 80.417926,6.1315583 q -0.444418,0 -0.678684,0.2583823 -0.230822,0.2549372 -0.279053,0.8130431 z"
         id="path475" /></g><rect
       style="fill:#1a1a1a;fill-opacity:0;stroke:#181818;stroke-width:0.25;stroke-dasharray:none;stroke-opacity:1"
       id="rect877"
       width="42.206604"
       height="4.089221"
       x="35.386589"
       y="11.829533"
       rx="1"
       ry="1" /><circle
       style="display:inline;fill:#1a1a1a;fill-opacity:1;stroke:#181818;stroke-width:0.25;stroke-dasharray:none;stroke-opacity:1"
       id="path2125"
       cx="38.74559"
       cy="13.874143"
       r="1.1683489"
       inkscape:tile-cx="43.082864"
       inkscape:tile-cy="13.874143"
       inkscape:tile-w="2.5866979"
       inkscape:tile-h="2.5866979"
       inkscape:tile-x0="41.789515"
       inkscape:tile-y0="12.580794" /><path
       id="use2634"
       style="display:inline;fill:#1a1a1a;fill-opacity:0;stroke:#181818;stroke-width:0.25"
       d="m 39.913938,13.874143 a 1.1683489,1.1683489 0 0 1 -1.168349,1.168349 1.1683489,1.1683489 0 0 1 -1.168349,-1.168349 1.1683489,1.1683489 0 0 1 1.168349,-1.168349 1.1683489,1.1683489 0 0 1 1.168349,1.168349 z" /><path
       id="use5554"
       style="display:inline;fill:#1a1a1a;fill-opacity:0;stroke:#181818;stroke-width:0.25"
       d="m 39.913938,13.874143 a 1.1683489,1.1683489 0 0 1 -1.168349,1.168349 1.1683489,1.1683489 0 0 1 -1.168349,-1.168349 1.1683489,1.1683489 0 0 1 1.168349,-1.168349 1.1683489,1.1683489 0 0 1 1.168349,1.168349 z" /><path
       id="use5556"
       style="display:inline;fill:#1a1a1a;fill-opacity:0;stroke:#181818;stroke-width:0.25"
       d="m 44.957998,13.874143 a 1.1683489,1.1683489 0 0 1 -1.168349,1.168349 1.1683489,1.1683489 0 0 1 -1.168349,-1.168349 1.1683489,1.1683489 0 0 1 1.168349,-1.168349 1.1683489,1.1683489 0 0 1 1.168349,1.168349 z" /><path
       id="use5558"
       style="display:inline;fill:#1a1a1a;fill-opacity:1;stroke:#181818;stroke-width:0.25"
       d="m 50.002061,13.874143 a 1.1683489,1.1683489 0 0 1 -1.168349,1.168349 1.1683489,1.1683489 0 0 1 -1.168349,-1.168349 1.1683489,1.1683489 0 0 1 1.168349,-1.168349 1.1683489,1.1683489 0 0 1 1.168349,1.168349 z" /><path
       id="use5560"
       style="display:inline;fill:#1a1a1a;fill-opacity:0;stroke:#181818;stroke-width:0.25"
       d="m 55.046121,13.874143 a 1.1683489,1.1683489 0 0 1 -1.168349,1.168349 1.1683489,1.1683489 0 0 1 -1.168349,-1.168349 1.1683489,1.1683489 0 0 1 1.168349,-1.168349 1.1683489,1.1683489 0 0 1 1.168349,1.168349 z" /><path
       id="use5562"
       style="display:inline;fill:#1a1a1a;fill-opacity:1;stroke:#181818;stroke-width:0.25"
       d="m 60.090181,13.874143 a 1.1683489,1.1683489 0 0 1 -1.168349,1.168349 1.1683489,1.1683489 0 0 1 -1.168349,-1.168349 1.1683489,1.1683489 0 0 1 1.168349,-1.168349 1.1683489,1.1683489 0 0 1 1.168349,1.168349 z" /><path
       id="use5564"
       style="display:inline;fill:#1a1a1a;fill-opacity:0;stroke:#181818;stroke-width:0.25"
       d="m 65.134244,13.874143 a 1.1683489,1.1683489 0 0 1 -1.168349,1.168349 1.1683489,1.1683489 0 0 1 -1.168349,-1.168349 1.1683489,1.1683489 0 0 1 1.168349,-1.168349 1.1683489,1.1683489 0 0 1 1.168349,1.168349 z" /><path
       id="use5566"
       style="display:inline;fill:#1a1a1a;fill-opacity:1;stroke:#181818;stroke-width:0.25"
       d="m 70.178304,13.874143 a 1.1683489,1.1683489 0 0 1 -1.168349,1.168349 1.1683489,1.1683489 0 0 1 -1.168349,-1.168349 1.1683489,1.1683489 0 0 1 1.168349,-1.168349 1.1683489,1.1683489 0 0 1 1.168349,1.168349 z" /><path
       id="use5568"
       style="display:inline;fill:#1a1a1a;fill-opacity:1;stroke:#181818;stroke-width:0.25"
       d="m 75.222364,13.874143 a 1.1683489,1.1683489 0 0 1 -1.168349,1.168349 1.1683489,1.1683489 0 0 1 -1.168349,-1.168349 1.1683489,1.1683489 0 0 1 1.168349,-1.168349 1.1683489,1.1683489 0 0 1 1.168349,1.168349 z" /><rect
       style="fill:#1a1a1a;stroke:#181818;stroke-width:0.750001"
       id="rect995"
       width="40.274685"
       height="9.5006952"
       x="10.739916"
       y="51.221134"
       rx="3"
       ry="3" /><rect
       style="fill:#1a1a1a;stroke:#181818;stroke-width:0.750001"
       id="rect4782"
       width="40.274685"
       height="9.5006952"
       x="10.739916"
       y="51.221134"
       rx="3"
       ry="3" /><rect
       style="fill:#1a1a1a;stroke:#181818;stroke-width:1.15833"
       id="rect4784"
       width="100.38165"
       height="9.0923634"
       x="5.6645679"
       y="78.933853"
       rx="3"
       ry="3" /><rect
       style="fill:#1a1a1a;stroke:#181818;stroke-width:1.15833"
       id="rect4986"
       width="100.38165"
       height="9.0923634"
       x="5.6645679"
       y="96.90255"
       rx="3"
       ry="3" /></g><g
     inkscape:groupmode="layer"
     id="layer2"
     inkscape:label="components"
     style="display:none" /></svg>
